<svg width="30" height="30" viewBox="0 0 30 30" fill="none" xmlns="http://www.w3.org/2000/svg">
<path d="M10.625 13.75C11.6605 13.75 12.5 12.9105 12.5 11.875C12.5 10.8395 11.6605 10 10.625 10C9.58946 10 8.75 10.8395 8.75 11.875C8.75 12.9105 9.58946 13.75 10.625 13.75Z" fill="#F4F5F7"/>
<path d="M21.25 11.875C21.25 12.9105 20.4105 13.75 19.375 13.75C18.3395 13.75 17.5 12.9105 17.5 11.875C17.5 10.8395 18.3395 10 19.375 10C20.4105 10 21.25 10.8395 21.25 11.875Z" fill="#F4F5F7"/>
<path d="M11.1109 16.9268C10.7978 16.3199 10.0539 16.0759 9.44126 16.3823C8.82379 16.691 8.5735 17.4419 8.88224 18.0593C8.98531 18.2648 9.11658 18.4574 9.25418 18.6409C9.48269 18.9456 9.82763 19.338 10.3132 19.7264C11.3001 20.5159 12.8216 21.2503 15.0003 21.2503C17.1789 21.2503 18.7005 20.5159 19.6874 19.7264C20.1729 19.338 20.5179 18.9456 20.7464 18.6409C20.8845 18.4568 21.0101 18.2641 21.1176 18.0606C21.4234 17.4513 21.169 16.6871 20.5593 16.3823C19.9466 16.0759 19.2028 16.3199 18.8896 16.9268C18.8724 16.9579 18.6371 17.365 18.1256 17.7743C17.5501 18.2346 16.5716 18.7503 15.0003 18.7503C13.4289 18.7503 12.4505 18.2346 11.8749 17.7743C11.3634 17.365 11.1282 16.9579 11.1109 16.9268Z" fill="#F4F5F7"/>
<path fill-rule="evenodd" clip-rule="evenodd" d="M15 28.75C22.5939 28.75 28.75 22.5939 28.75 15C28.75 7.40609 22.5939 1.25 15 1.25C7.40609 1.25 1.25 7.40609 1.25 15C1.25 22.5939 7.40609 28.75 15 28.75ZM15 26.2415C8.79151 26.2415 3.75854 21.2085 3.75854 15C3.75854 8.79151 8.79151 3.75854 15 3.75854C21.2085 3.75854 26.2415 8.79151 26.2415 15C26.2415 21.2085 21.2085 26.2415 15 26.2415Z" fill="#F4F5F7"/>
</svg>
