<svg width="60" height="60" viewBox="0 0 60 60" fill="none" xmlns="http://www.w3.org/2000/svg">
<rect width="60" height="60" rx="30" fill="#E1FF01"/>
<path d="M43.8833 24.2833C43.7667 22.7667 43.5333 21.8333 43.1833 20.9C42.95 19.9667 42.4833 19.15 41.6667 18.3333C40.85 17.5167 40.15 17.05 39.2167 16.7C38.2833 16.35 37.35 16.1167 35.8333 16C34.3167 16 33.85 16 30 16C26.15 16 25.6833 16 24.2833 16.1167C22.7667 16.1167 21.7167 16.35 20.7833 16.7C19.9667 17.05 19.15 17.5167 18.3333 18.3333C17.5167 19.15 17.05 19.9667 16.7 20.7833C16.35 21.7167 16.1167 22.7667 16.1167 24.2833C16 25.6833 16 26.15 16 30C16 33.85 16 34.3167 16.1167 35.7167C16.2333 37.2333 16.4667 38.1667 16.8167 39.1C17.05 40.0333 17.5167 40.85 18.3333 41.6667C19.15 42.4833 19.85 42.95 20.7833 43.3C21.7167 43.65 22.65 43.8833 24.1667 44C25.6833 44 26.15 44 30 44C33.85 44 34.3167 44 35.7167 43.8833C37.2333 43.7667 38.1667 43.5333 39.1 43.1833C40.0333 42.8333 40.85 42.3667 41.55 41.55C42.25 40.7333 42.8333 40.0333 43.1833 39.1C43.5333 38.1667 43.7667 37.2333 43.8833 35.7167C44 34.3167 44 33.85 44 30C44 26.15 44 25.6833 43.8833 24.2833ZM41.4333 35.6C41.3167 37 41.2 37.7 40.9667 38.1667C40.7333 38.8667 40.3833 39.3333 39.9167 39.8C39.45 40.2667 38.9833 40.6167 38.2833 40.85C37.8167 41.0833 37 41.3167 35.7167 41.3167C34.2 41.4333 33.85 41.4333 30.1167 41.4333C26.3833 41.4333 25.9167 41.4333 24.5167 41.3167C23.1167 41.2 22.4167 41.0833 21.95 40.85C21.25 40.6167 20.7833 40.2667 20.3167 39.8C19.85 39.3333 19.5 38.8667 19.2667 38.1667C19.0333 37.7 18.8 36.8833 18.8 35.6C18.6833 34.0833 18.6833 33.7333 18.6833 30C18.6833 26.2667 18.6833 25.8 18.8 24.4C18.6833 23 18.9167 22.1833 19.0333 21.7167C19.2667 21.0167 19.6167 20.55 20.0833 20.0833C20.55 19.6167 21.0167 19.2667 21.7167 19.0333C22.1833 18.9167 23 18.6833 24.4 18.5667C25.8 18.5667 26.2667 18.5667 30 18.5667C33.7333 18.5667 34.2 18.5667 35.6 18.6833C37 18.8 37.7 18.9167 38.1667 19.15C38.8667 19.3833 39.3333 19.7333 39.8 20.2C40.2667 20.6667 40.6167 21.1333 40.85 21.8333C41.0833 22.3 41.3167 23.1167 41.3167 24.4C41.4333 25.9167 41.4333 26.2667 41.4333 30C41.4333 33.7333 41.4333 34.2 41.4333 35.6Z" fill="black"/>
<path d="M30 23C26.15 23 23 26.15 23 30C23 33.85 26.15 37 30 37C33.85 37 37 33.85 37 30C37 26.15 33.85 23 30 23ZM30 34.55C27.4333 34.55 25.45 32.5667 25.45 30C25.45 27.4333 27.4333 25.45 30 25.45C32.5667 25.45 34.55 27.4333 34.55 30C34.55 32.5667 32.5667 34.55 30 34.55Z" fill="black"/>
<path d="M37.583 24.75C38.5495 24.75 39.333 23.9665 39.333 23C39.333 22.0335 38.5495 21.25 37.583 21.25C36.6165 21.25 35.833 22.0335 35.833 23C35.833 23.9665 36.6165 24.75 37.583 24.75Z" fill="black"/>
</svg>
