<svg width="68" height="68" viewBox="0 0 68 68" fill="none" xmlns="http://www.w3.org/2000/svg">
<rect width="68" height="68" rx="34" fill="#010101"/>
<path d="M33.0498 46.5C34.6585 46.5 36.2514 46.1831 37.7377 45.5675C39.2239 44.9519 40.5743 44.0496 41.7119 42.9121C42.8494 41.7745 43.7517 40.4241 44.3673 38.9379C44.983 37.4516 45.2998 35.8587 45.2998 34.25C45.2998 32.6413 44.983 31.0484 44.3673 29.5621C43.7517 28.0759 42.8494 26.7255 41.7119 25.5879C40.5743 24.4504 39.2239 23.5481 37.7377 22.9325C36.2514 22.3169 34.6585 22 33.0498 22C29.8009 22 26.6851 23.2906 24.3877 25.5879C22.0904 27.8853 20.7998 31.0011 20.7998 34.25C20.7998 37.4989 22.0904 40.6147 24.3877 42.9121C26.6851 45.2094 29.8009 46.5 33.0498 46.5Z" stroke="#DCF331" stroke-width="1.75" stroke-linecap="square"/>
<path d="M40.5971 35.3947C39.4403 35.6617 38.2346 35.6301 37.0933 35.3027C35.9521 34.9754 34.9129 34.3633 34.0734 33.5238C33.2339 32.6843 32.6217 31.645 32.2944 30.5038C31.9671 29.3626 31.9354 28.1568 32.2024 27C30.5324 27.3921 29.0645 28.3835 28.0769 29.7861C27.0893 31.1886 26.6509 32.9049 26.8447 34.6093C27.0384 36.3136 27.851 37.8876 29.1282 39.0327C30.4055 40.1778 32.0585 40.8143 33.7739 40.8215C37.0989 40.8215 39.8814 38.5027 40.5971 35.3947Z" stroke="#DCF331" stroke-width="1.75" stroke-linecap="square"/>
<path d="M33.7998 21.5V18M33.7998 49.5V46" stroke="#DCF331" stroke-width="1.75" stroke-linecap="square"/>
<path d="M21.0498 34.3743H15.7998M50.7998 34.3743H45.5498M41.9623 25.7118L45.6723 22.0017M41.9623 43.0368L45.6741 46.7485M20.9256 46.7485L24.6373 43.0368L20.9273 46.7467L20.9256 46.7485ZM20.9256 22L24.6373 25.7118L20.9273 22.0017L20.9256 22Z" stroke="#DCF331" stroke-width="1.75" stroke-linecap="square"/>
</svg>
