<svg width="55" height="56" viewBox="0 0 55 56" fill="none" xmlns="http://www.w3.org/2000/svg">
<rect y="0.333496" width="55" height="55.3333" rx="27.5" fill="#E1FF01"/>
<path d="M44.5625 21.2918C44.5625 21.2918 44.125 19.1043 43.25 17.9377C41.9375 16.6252 40.3333 16.771 39.75 16.6252C34.9375 16.3335 27.5 16.3335 27.5 16.3335C27.5 16.3335 20.0625 16.3335 15.25 16.6252C14.6667 16.771 13.0625 16.771 11.75 18.0835C10.7292 19.1043 10.4375 21.4377 10.4375 21.4377C10.4375 21.4377 10 24.2085 10 26.8335V29.3127C10 32.0835 10.4375 34.7085 10.4375 34.7085C10.4375 34.7085 10.875 36.896 11.75 38.0627C13.0625 39.3752 14.8125 39.2293 15.6875 39.3752C18.3125 39.6668 27.5 39.6668 27.5 39.6668C27.5 39.6668 34.9375 39.6668 39.75 39.3752C40.3333 39.2293 41.9375 39.2293 43.25 37.9168C44.2708 36.896 44.5625 34.5627 44.5625 34.5627C44.5625 34.5627 45 31.7918 45 29.3127V26.8335C45 24.0627 44.5625 21.2918 44.5625 21.2918ZM23.5625 32.521V22.7502L33.625 27.7085L23.5625 32.521Z" fill="black"/>
</svg>
