<svg width="60" height="60" viewBox="0 0 60 60" fill="none" xmlns="http://www.w3.org/2000/svg">
<rect width="60" height="60" rx="30" fill="#E1FF01"/>
<path d="M19.1111 16H40.8889C41.714 16 42.5053 16.3278 43.0888 16.9112C43.6722 17.4947 44 18.286 44 19.1111V40.8889C44 41.714 43.6722 42.5053 43.0888 43.0888C42.5053 43.6722 41.714 44 40.8889 44H19.1111C18.286 44 17.4947 43.6722 16.9112 43.0888C16.3278 42.5053 16 41.714 16 40.8889V19.1111C16 18.286 16.3278 17.4947 16.9112 16.9112C17.4947 16.3278 18.286 16 19.1111 16ZM39.3333 19.1111H35.4444C34.0005 19.1111 32.6157 19.6847 31.5946 20.7058C30.5736 21.7268 30 23.1116 30 24.5556V28.4444H26.8889V33.1111H30V44H34.6667V33.1111H39.3333V28.4444H34.6667V25.3333C34.6667 24.9208 34.8306 24.5251 35.1223 24.2334C35.414 23.9417 35.8097 23.7778 36.2222 23.7778H39.3333V19.1111Z" fill="black"/>
</svg>
