<svg width="60" height="60" viewBox="0 0 60 60" fill="none" xmlns="http://www.w3.org/2000/svg">
<rect width="60" height="60" rx="30" fill="#E1FF01"/>
<path d="M19.1111 16H40.8889C41.714 16 42.5053 16.3278 43.0888 16.9112C43.6722 17.4947 44 18.286 44 19.1111V40.8889C44 41.714 43.6722 42.5053 43.0888 43.0888C42.5053 43.6722 41.714 44 40.8889 44H19.1111C18.286 44 17.4947 43.6722 16.9112 43.0888C16.3278 42.5053 16 41.714 16 40.8889V19.1111C16 18.286 16.3278 17.4947 16.9112 16.9112C17.4947 16.3278 18.286 16 19.1111 16ZM38.8822 25.8467C39.6922 25.2584 40.3748 24.5123 40.8889 23.6533C40.184 23.992 39.4264 24.2077 38.6489 24.2911C39.4619 23.7376 40.0733 22.9352 40.3911 22.0044C39.5791 22.4744 38.6967 22.8105 37.7778 23C37.1392 22.3169 36.2922 21.8646 35.3693 21.7137C34.4464 21.5629 33.4995 21.7221 32.6767 22.1664C31.8538 22.6107 31.2013 23.3151 30.8212 24.1695C30.441 25.0239 30.3547 25.9802 30.5756 26.8889C28.915 26.7935 27.293 26.351 25.814 25.5901C24.335 24.8292 23.0319 23.7667 21.9889 22.4711C21.512 23.397 21.3739 24.4604 21.5983 25.4773C21.8227 26.4943 22.3956 27.4008 23.2178 28.04C22.5979 27.9912 21.9945 27.8165 21.4444 27.5267C21.4201 28.4881 21.7289 29.4284 22.3186 30.1882C22.9083 30.948 23.7426 31.4805 24.68 31.6956C24.0932 31.7969 23.4934 31.7969 22.9067 31.6956C23.1534 32.5289 23.6554 33.2638 24.3419 33.7969C25.0284 34.3299 25.8648 34.6341 26.7333 34.6667C25.0068 35.9949 22.8305 36.5975 20.6667 36.3467C22.6185 37.6922 24.9561 38.364 27.3244 38.26C34.1844 37.9489 38.7733 33.1111 38.8822 25.8467Z" fill="#010101"/>
</svg>
