<svg width="60" height="60" viewBox="0 0 60 60" fill="none" xmlns="http://www.w3.org/2000/svg">
<rect width="60" height="60" rx="30" fill="#E1FF01"/>
<path d="M40.8889 16C41.714 16 42.5053 16.3278 43.0888 16.9112C43.6722 17.4947 44 18.286 44 19.1111V40.8889C44 41.714 43.6722 42.5053 43.0888 43.0888C42.5053 43.6722 41.714 44 40.8889 44H19.1111C18.286 44 17.4947 43.6722 16.9112 43.0888C16.3278 42.5053 16 41.714 16 40.8889V19.1111C16 18.286 16.3278 17.4947 16.9112 16.9112C17.4947 16.3278 18.286 16 19.1111 16H40.8889ZM40.1111 40.1111V31.8667C40.1111 30.5217 39.5768 29.2319 38.6258 28.2808C37.6748 27.3298 36.3849 26.7956 35.04 26.7956C34.3208 26.8203 33.6179 27.0168 32.9901 27.3686C32.3623 27.7204 31.8277 28.2173 31.4311 28.8178V27.0911H27.0911V40.1111H31.4311V32.4422C31.4057 32.1418 31.4429 31.8394 31.5403 31.5541C31.6378 31.2688 31.7935 31.0069 31.9975 30.7849C32.2015 30.5629 32.4493 30.3856 32.7254 30.2644C33.0014 30.1432 33.2996 30.0806 33.6011 30.0806C33.9026 30.0806 34.2008 30.1432 34.4768 30.2644C34.7529 30.3856 35.0007 30.5629 35.2047 30.7849C35.4087 31.0069 35.5644 31.2688 35.6619 31.5541C35.7594 31.8394 35.7966 32.1418 35.7711 32.4422V40.1111H40.1111ZM22.0356 24.6489C22.7287 24.6489 23.3934 24.3736 23.8835 23.8835C24.3736 23.3934 24.6489 22.7287 24.6489 22.0356C24.6767 21.6744 24.6296 21.3113 24.5105 20.9692C24.3914 20.6271 24.2029 20.3133 23.9568 20.0475C23.7107 19.7816 23.4123 19.5695 23.0803 19.4245C22.7484 19.2795 22.39 19.2046 22.0278 19.2046C21.6655 19.2046 21.3072 19.2795 20.9752 19.4245C20.6433 19.5695 20.3449 19.7816 20.0988 20.0475C19.8526 20.3133 19.6641 20.6271 19.545 20.9692C19.4259 21.3113 19.3788 21.6744 19.4067 22.0356C19.4108 22.7301 19.6896 23.3948 20.1821 23.8844C20.6747 24.3741 21.341 24.6489 22.0356 24.6489ZM24.1978 40.1111V27.0911H19.8889V40.1111H24.1978Z" fill="black"/>
</svg>
