<svg width="25" height="22" viewBox="0 0 25 22" fill="none" xmlns="http://www.w3.org/2000/svg">
<path d="M11.9515 11.0032H4.34957M4.1341 11.9997L2.87815 15.7514C2.19027 17.8062 1.84634 18.8335 2.09316 19.4662C2.3075 20.0157 2.76786 20.4322 3.33592 20.5908C3.99006 20.7733 4.97806 20.3287 6.95406 19.4395L19.622 13.7389C21.5508 12.8709 22.5152 12.437 22.8132 11.8342C23.0722 11.3104 23.0722 10.6958 22.8132 10.172C22.5152 9.5693 21.5508 9.1353 19.622 8.26736L6.93221 2.55696C4.96216 1.67045 3.97715 1.22719 3.32366 1.40902C2.75614 1.56694 2.29582 1.98237 2.08074 2.53079C1.83306 3.16227 2.17332 4.18744 2.85386 6.23776L4.13654 10.1023C4.25341 10.4544 4.31186 10.6305 4.33492 10.8105C4.3554 10.9704 4.35519 11.1322 4.33431 11.2919C4.31077 11.4719 4.25189 11.6478 4.1341 11.9997Z" stroke="black" stroke-width="2.5" stroke-linecap="round" stroke-linejoin="round"/>
</svg>
